<?xml version="1.0" standalone="no"?>
<!DOCTYPE svg PUBLIC "-//W3C//DTD SVG 20010904//EN"
 "http://www.w3.org/TR/2001/REC-SVG-20010904/DTD/svg10.dtd">
<svg version="1.0" xmlns="http://www.w3.org/2000/svg"
 width="700.000000pt" height="700.000000pt" viewBox="0 0 700.000000 700.000000"
 preserveAspectRatio="xMidYMid meet">
<metadata>
Created by potrace 1.14, written by Peter Selinger 2001-2017
</metadata>
<g transform="translate(0.000000,700.000000) scale(0.100000,-0.100000)"
fill="#000000" stroke="none">
<path d="M4215 6986 c-201 -32 -429 -140 -574 -271 -65 -58 -309 -309 -510
-524 -35 -37 -294 -309 -481 -505 -58 -60 -118 -124 -135 -141 -32 -34 -305
-320 -418 -439 -94 -98 -333 -348 -402 -421 -31 -33 -63 -73 -72 -88 -20 -40
-23 -105 -6 -147 28 -70 49 -83 278 -178 33 -13 74 -30 90 -37 17 -7 161 -68
321 -134 303 -126 340 -136 397 -106 15 8 103 92 196 187 93 95 231 236 306
313 75 77 246 253 380 390 134 138 344 353 467 479 l223 228 3 -898 c1 -495 4
-1118 5 -1387 1 -268 2 -487 1 -487 -2 0 -134 54 -159 65 -30 13 -245 100
-340 137 -27 11 -68 28 -90 37 -22 10 -60 26 -85 36 -25 10 -58 23 -75 30 -16
7 -113 47 -215 88 -207 84 -398 162 -570 232 -63 26 -198 81 -300 122 -102 41
-201 82 -220 90 -19 8 -45 19 -57 24 -13 5 -33 13 -45 19 -13 5 -97 39 -188
76 -156 62 -189 76 -268 110 -81 35 -159 30 -208 -14 -70 -60 -64 112 -62
-1979 l3 -1887 184 249 c102 138 194 262 205 277 12 14 28 35 36 46 56 75 641
862 803 1080 109 147 204 274 212 284 12 15 40 5 322 -109 722 -292 761 -306
878 -329 150 -28 380 -24 541 10 51 11 209 68 278 102 354 170 623 509 705
889 6 28 14 64 18 80 4 17 8 770 8 1674 1 1668 1 1702 -34 1855 -29 125 -126
323 -208 426 -15 19 -64 71 -109 116 -157 155 -363 266 -588 316 -113 25 -328
31 -441 14z"/>
</g>
</svg>
