<?xml version="1.0" encoding="UTF-8" standalone="no"?>
<svg
   width="54.58617"
   height="30.001919"
   viewBox="0 0 54.58617 30.001919"
   fill="none"
   class="header-module--logo--3bSX-"
   version="1.1"
   id="svg8"
   sodipodi:docname="vshn-white.svg"
   inkscape:version="1.1 (1:1.1+202105261517+ce6663b3b7)"
   xmlns:inkscape="http://www.inkscape.org/namespaces/inkscape"
   xmlns:sodipodi="http://sodipodi.sourceforge.net/DTD/sodipodi-0.dtd"
   xmlns="http://www.w3.org/2000/svg"
   xmlns:svg="http://www.w3.org/2000/svg">
  <defs
     id="defs12">
    <clipPath
       clipPathUnits="userSpaceOnUse"
       id="clipPath130">
      <rect
         style="fill:#4c77ff"
         id="rect132"
         width="60.348106"
         height="38.698837"
         x="-5.5319347"
         y="-5.8407316" />
    </clipPath>
    <clipPath
       clipPathUnits="userSpaceOnUse"
       id="clipPath134">
      <rect
         style="fill:#4c77ff"
         id="rect136"
         width="60.348106"
         height="38.698837"
         x="-5.5319347"
         y="-5.8407316" />
    </clipPath>
    <clipPath
       clipPathUnits="userSpaceOnUse"
       id="clipPath138">
      <rect
         style="fill:#4c77ff"
         id="rect140"
         width="60.348106"
         height="38.698837"
         x="-5.5319347"
         y="-5.8407316" />
    </clipPath>
  </defs>
  <sodipodi:namedview
     id="namedview10"
     pagecolor="#ffffff"
     bordercolor="#666666"
     borderopacity="1.0"
     inkscape:pageshadow="2"
     inkscape:pageopacity="0.0"
     inkscape:pagecheckerboard="0"
     showgrid="false"
     fit-margin-top="0"
     fit-margin-left="0"
     fit-margin-right="0"
     fit-margin-bottom="0"
     inkscape:zoom="10.790323"
     inkscape:cx="29.934229"
     inkscape:cy="14.967115"
     inkscape:window-width="1866"
     inkscape:window-height="1016"
     inkscape:window-x="54"
     inkscape:window-y="27"
     inkscape:window-maximized="1"
     inkscape:current-layer="svg8" />
  <circle
     cx="26.731001"
     cy="15"
     r="9.5"
     fill="#4081cb"
     id="circle2"
     clip-path="url(#clipPath138)"
     transform="translate(-0.23,2.5166865e-4)"
     style="fill:#a1e0e9;fill-opacity:1" />
  <path
     d="M 16.027,3.246 V 7.53 l 2.609,-1.587 a 15.583,15.583 0 0 1 16.212,0 l 0.312,0.19 v 0.002 l 0.07,0.04 V 1.98 L 35.161,1.946 A 19.19,19.19 0 0 0 16.757,2.801 Z M 37.448,26.754 V 22.47 l -2.609,1.586 a 15.582,15.582 0 0 1 -16.212,0 l -0.313,-0.19 V 23.864 L 18.23,23.821 v 4.196 l 0.084,0.039 A 19.191,19.191 0 0 0 36.718,27.2 l 0.73,-0.445 z"
     fill="#4081cb"
     id="path4"
     clip-path="url(#clipPath134)"
     transform="translate(-0.23,2.5166865e-4)"
     style="fill:#a1e0e9;fill-opacity:1" />
  <path
     d="M 16.016,7.532 V 3.246 L 0.23,12.847 v 4.307 l 15.786,9.602 V 22.47 L 3.736,15 Z m 21.43,19.224 15.786,-9.602 V 12.847 L 37.446,3.247 V 7.532 L 49.726,15 37.446,22.47 v 4.285 z M 84.175,20.55 c -0.358,0.09 -0.806,0.14 -1.354,0.14 -1.095,0 -2.02,-0.11 -2.768,-0.328 a 9.687,9.687 0 0 1 -1.901,-0.757 l -1.096,3.087 c 0.23,0.129 0.518,0.268 0.857,0.418 0.338,0.14 0.736,0.279 1.214,0.418 0.478,0.14 1.016,0.249 1.633,0.338 0.618,0.09 1.305,0.14 2.071,0.14 2.27,0 3.973,-0.448 5.098,-1.334 1.125,-0.887 1.693,-2.131 1.693,-3.744 0,-0.826 -0.1,-1.533 -0.319,-2.11 a 4.152,4.152 0 0 0 -0.986,-1.514 c -0.438,-0.438 -0.985,-0.817 -1.652,-1.136 a 24.117,24.117 0 0 0 -2.34,-0.985 29.13,29.13 0 0 1 -1.185,-0.438 5.992,5.992 0 0 1 -0.946,-0.478 c -0.279,-0.18 -0.488,-0.369 -0.637,-0.588 a 1.44,1.44 0 0 1 -0.22,-0.796 c 0,-0.538 0.2,-0.926 0.608,-1.185 0.408,-0.259 1.075,-0.388 2.001,-0.388 0.837,0 1.544,0.1 2.131,0.288 0.588,0.19 1.125,0.409 1.603,0.657 L 88.795,7.2 C 88.248,6.901 87.541,6.642 86.705,6.383 85.868,6.124 84.862,6.005 83.698,6.005 c -0.976,0 -1.862,0.12 -2.64,0.358 a 5.907,5.907 0 0 0 -1.99,1.036 4.523,4.523 0 0 0 -1.275,1.633 c -0.299,0.637 -0.448,1.354 -0.448,2.15 0,0.797 0.14,1.474 0.418,2.032 a 4.65,4.65 0 0 0 1.096,1.414 c 0.438,0.398 0.945,0.716 1.513,0.975 0.567,0.26 1.125,0.488 1.693,0.687 1.294,0.428 2.21,0.827 2.738,1.205 0.527,0.369 0.796,0.837 0.796,1.404 0,0.259 -0.04,0.498 -0.12,0.717 -0.079,0.209 -0.228,0.398 -0.447,0.558 -0.21,0.159 -0.498,0.288 -0.857,0.378 z M 64.52,19.137 a 138.018,138.018 0 0 0 2.032,4.51 v -0.01 h 3.694 a 120.951,120.951 0 0 0 2.021,-4.5 168.69,168.69 0 0 0 1.892,-4.63 210.708,210.708 0 0 0 1.653,-4.381 c 0.507,-1.384 0.945,-2.629 1.334,-3.734 h -4.132 a 136.135,136.135 0 0 1 -1.076,3.236 c -0.388,1.155 -0.796,2.3 -1.204,3.445 -0.409,1.145 -0.807,2.24 -1.195,3.286 a 55.972,55.972 0 0 1 -1.066,2.708 37.937,37.937 0 0 1 -1.075,-2.718 c -0.222,-0.63 -0.454,-1.276 -0.693,-1.941 L 66.704,14.405 C 66.546,13.965 66.385,13.518 66.224,13.063 65.815,11.918 65.417,10.773 65.018,9.618 64.62,8.463 64.262,7.388 63.943,6.392 h -4.281 c 0.368,1.095 0.806,2.34 1.304,3.734 a 153.73,153.73 0 0 0 1.653,4.38 146.744,146.744 0 0 0 1.902,4.63 z M 101.769,6.402 h 3.883 v 17.246 h -3.883 v -7.319 h -6.522 v 7.319 H 91.364 V 6.402 h 3.883 v 6.592 h 6.522 z m 14.587,11.391 a 90.942,90.942 0 0 1 3.604,5.855 h 3.266 V 6.402 h -3.863 v 10.166 a 181.464,181.464 0 0 0 -1.912,-2.798 93.097,93.097 0 0 0 -2.051,-2.807 67.257,67.257 0 0 0 -2.031,-2.55 28.646,28.646 0 0 0 -1.812,-2.01 h -3.166 v 17.245 h 3.833 V 12.337 a 59.7,59.7 0 0 1 4.132,5.456 z"
     fill="#444444"
     id="path6"
     clip-path="url(#clipPath130)"
     transform="translate(-0.23,2.5166865e-4)"
     style="fill:#a1e0e9;fill-opacity:1" />
</svg>
